<svg width="12" height="10" viewBox="0 0 12 10" fill="none" xmlns="http://www.w3.org/2000/svg">
<path d="M0.951782 8.44131C0.951782 8.94578 1.35854 9.35506 1.85989 9.35506H10.941C11.4423 9.35506 11.8491 8.94578 11.8491 8.44131V5.0909H0.951782V8.44131ZM4.58422 7.14684C4.58422 7.0212 4.68638 6.9184 4.81124 6.9184H7.38422C7.50909 6.9184 7.61125 7.0212 7.61125 7.14684V7.90829C7.61125 8.03393 7.50909 8.13673 7.38422 8.13673H4.81124C4.68638 8.13673 4.58422 8.03393 4.58422 7.90829V7.14684ZM2.16259 7.14684C2.16259 7.0212 2.26476 6.9184 2.38962 6.9184H3.75178C3.87665 6.9184 3.97881 7.0212 3.97881 7.14684V7.90829C3.97881 8.03393 3.87665 8.13673 3.75178 8.13673H2.38962C2.26476 8.13673 2.16259 8.03393 2.16259 7.90829V7.14684ZM11.8491 1.74049V2.65424H0.951782V1.74049C0.951782 1.23602 1.35854 0.826736 1.85989 0.826736H10.941C11.4423 0.826736 11.8491 1.23602 11.8491 1.74049Z" fill="white" fill-opacity="0.4"/>
</svg>
