<svg width="12" height="8" viewBox="0 0 12 8" fill="none" xmlns="http://www.w3.org/2000/svg">
<path d="M11.5281 0.634504C10.8677 0.359195 10.2067 0.254452 9.54605 0.254452C7.44886 0.254283 5.35184 1.30932 3.25465 1.30932C2.7287 1.30932 2.20308 1.24299 1.67712 1.07716C1.61804 1.05855 1.55879 1.04975 1.5009 1.04975C1.20786 1.04975 0.951782 1.27514 0.951782 1.58802V6.95647C0.951782 7.17018 1.07489 7.37273 1.27257 7.45497C1.93304 7.73044 2.59401 7.83519 3.25465 7.83519C5.35184 7.83519 7.44903 6.78015 9.54622 6.78015C10.0722 6.78015 10.5978 6.84648 11.1237 7.01231C11.1828 7.03092 11.2421 7.03972 11.3 7.03972C11.593 7.03972 11.8491 6.81433 11.8491 6.50145V1.13317C11.8489 0.919289 11.7258 0.716911 11.5281 0.634504ZM1.76907 1.9503C2.11165 2.03559 2.46921 2.0784 2.83699 2.10141C2.73687 2.59873 2.2969 2.97353 1.76907 2.97353V1.9503ZM1.76907 6.77287V5.96437C2.35428 5.96437 2.82779 6.42581 2.85384 7.00334C2.47023 6.97271 2.11165 6.89656 1.76907 6.77287ZM6.40035 5.66926C5.64794 5.66926 5.03821 4.94182 5.03821 4.04482C5.03821 3.14765 5.64811 2.42038 6.40035 2.42038C7.15259 2.42038 7.76249 3.14765 7.76249 4.04482C7.76249 4.94216 7.15242 5.66926 6.40035 5.66926ZM11.0316 6.13934C10.7333 6.06505 10.4236 6.02343 10.1067 5.99652C10.2067 5.55521 10.575 5.22017 11.0316 5.16264V6.13934ZM11.0316 2.14405C10.5057 2.07789 10.0975 1.64149 10.0814 1.10255C10.4141 1.13927 10.7299 1.20797 11.0316 1.31677V2.14405Z" fill="white" fill-opacity="0.4"/>
</svg>
