<svg width="12" height="9" viewBox="0 0 12 9" fill="none" xmlns="http://www.w3.org/2000/svg">
<path d="M10.9822 6.99957H1.78764V0.998153C1.78764 0.823638 1.63525 0.682289 1.4471 0.682289H0.766017C0.577868 0.682289 0.425476 0.823638 0.425476 0.998153V7.6313C0.425476 7.98013 0.730473 8.26302 1.10656 8.26302H10.9822C11.1704 8.26302 11.3228 8.12168 11.3228 7.94716V7.31543C11.3228 7.14092 11.1704 6.99957 10.9822 6.99957ZM10.3012 1.31402H7.78839C7.33335 1.31402 7.1054 1.82433 7.42721 2.12283L8.1168 2.76245L6.55521 4.21108L4.99362 2.76265C4.72757 2.51588 4.29636 2.51588 4.03053 2.76265L2.56854 4.11869C2.43552 4.24208 2.43552 4.44206 2.56854 4.56544L3.04998 5.01199C3.18301 5.13538 3.39861 5.13538 3.53163 5.01199L4.51197 4.1025L6.07356 5.55094C6.33961 5.79771 6.77082 5.79771 7.03665 5.55094L9.0799 3.65575L9.76949 4.29538C10.0913 4.59387 10.6415 4.38244 10.6415 3.96036V1.62988C10.6417 1.45537 10.4893 1.31402 10.3012 1.31402Z" fill="white" fill-opacity="0.4"/>
</svg>
