<svg width="9" height="12" viewBox="0 0 9 12" fill="none" xmlns="http://www.w3.org/2000/svg">
<path d="M7.83536 1.54747H6.05863C6.05863 0.763487 5.42123 0.126083 4.63724 0.126083C3.85326 0.126083 3.21585 0.763487 3.21585 1.54747H1.43912C0.850575 1.54747 0.373077 2.02497 0.373077 2.61351V10.4311C0.373077 11.0197 0.850575 11.4972 1.43912 11.4972H7.83536C8.42391 11.4972 8.90141 11.0197 8.90141 10.4311V2.61351C8.90141 2.02497 8.42391 1.54747 7.83536 1.54747ZM2.50516 9.54278C2.20978 9.54278 1.97214 9.30514 1.97214 9.00976C1.97214 8.71438 2.20978 8.47674 2.50516 8.47674C2.80054 8.47674 3.03818 8.71438 3.03818 9.00976C3.03818 9.30514 2.80054 9.54278 2.50516 9.54278ZM2.50516 7.4107C2.20978 7.4107 1.97214 7.17306 1.97214 6.87768C1.97214 6.58229 2.20978 6.34466 2.50516 6.34466C2.80054 6.34466 3.03818 6.58229 3.03818 6.87768C3.03818 7.17306 2.80054 7.4107 2.50516 7.4107ZM2.50516 5.27861C2.20978 5.27861 1.97214 5.04098 1.97214 4.74559C1.97214 4.45021 2.20978 4.21257 2.50516 4.21257C2.80054 4.21257 3.03818 4.45021 3.03818 4.74559C3.03818 5.04098 2.80054 5.27861 2.50516 5.27861ZM4.63724 1.01445C4.93262 1.01445 5.17026 1.25209 5.17026 1.54747C5.17026 1.84285 4.93262 2.08049 4.63724 2.08049C4.34186 2.08049 4.10422 1.84285 4.10422 1.54747C4.10422 1.25209 4.34186 1.01445 4.63724 1.01445ZM7.48002 9.18743C7.48002 9.28515 7.40006 9.3651 7.30234 9.3651H4.10422C4.0065 9.3651 3.92655 9.28515 3.92655 9.18743V8.83208C3.92655 8.73436 4.0065 8.65441 4.10422 8.65441H7.30234C7.40006 8.65441 7.48002 8.73436 7.48002 8.83208V9.18743ZM7.48002 7.05535C7.48002 7.15307 7.40006 7.23302 7.30234 7.23302H4.10422C4.0065 7.23302 3.92655 7.15307 3.92655 7.05535V6.7C3.92655 6.60228 4.0065 6.52233 4.10422 6.52233H7.30234C7.40006 6.52233 7.48002 6.60228 7.48002 6.7V7.05535ZM7.48002 4.92327C7.48002 5.02099 7.40006 5.10094 7.30234 5.10094H4.10422C4.0065 5.10094 3.92655 5.02099 3.92655 4.92327V4.56792C3.92655 4.4702 4.0065 4.39025 4.10422 4.39025H7.30234C7.40006 4.39025 7.48002 4.4702 7.48002 4.56792V4.92327Z" fill="white" fill-opacity="0.4"/>
</svg>
