<svg width="12" height="12" viewBox="0 0 12 12" fill="none" xmlns="http://www.w3.org/2000/svg">
<path d="M5.87413 0.590126C2.86503 0.590126 0.425476 2.75673 0.425476 5.42961C0.425476 6.58271 0.881162 7.64019 1.63908 8.47151C1.37175 9.64206 0.482942 10.6872 0.4723 10.6995C0.449383 10.7259 0.434047 10.7591 0.428191 10.7949C0.422335 10.8307 0.426217 10.8676 0.439355 10.901C0.452494 10.9345 0.474312 10.963 0.502109 10.983C0.529907 11.003 0.562463 11.0136 0.595746 11.0136C2.00601 11.0136 3.06445 10.2749 3.58825 9.81819C4.28402 10.1046 5.05662 10.2691 5.87413 10.2691C8.88323 10.2691 11.3228 8.1025 11.3228 5.42961C11.3228 2.75673 8.88323 0.590126 5.87413 0.590126ZM6.38494 7.62693V8.03549C6.38494 8.24117 6.23255 8.40776 6.0444 8.40776H5.70386C5.51571 8.40776 5.36332 8.24117 5.36332 8.03549V7.62297C5.12026 7.59156 4.88911 7.50222 4.68692 7.35633C4.55453 7.26071 4.54176 7.05131 4.65393 6.92869L5.02682 6.52106C5.10642 6.43404 5.22497 6.42241 5.32714 6.47383C5.39482 6.5078 5.46889 6.52548 5.54551 6.52548H6.24319C6.34237 6.52548 6.42283 6.43753 6.42283 6.32957C6.42283 6.24232 6.36919 6.16484 6.29257 6.14088L5.22689 5.80816C4.75332 5.66042 4.37532 5.23324 4.3136 4.69904C4.2274 3.95287 4.71863 3.31629 5.36332 3.23207V2.82374C5.36332 2.61806 5.51571 2.45147 5.70386 2.45147H6.0444C6.23255 2.45147 6.38494 2.61806 6.38494 2.82374V3.23626C6.628 3.26767 6.85914 3.35701 7.06134 3.50289C7.19373 3.59852 7.20649 3.80792 7.09433 3.93054L6.72144 4.33817C6.64184 4.42519 6.52329 4.43682 6.42112 4.3854C6.3526 4.35115 6.2781 4.33353 6.20275 4.33375H5.50507C5.40589 4.33375 5.32543 4.4217 5.32543 4.52965C5.32543 4.61691 5.37907 4.69438 5.45569 4.71835L6.52137 5.05106C6.99493 5.19904 7.37293 5.62598 7.43466 6.16019C7.52086 6.90612 7.02963 7.5427 6.38494 7.62693Z" fill="white" fill-opacity="0.4"/>
</svg>
