<svg width="12" height="10" viewBox="0 0 12 10" fill="none" xmlns="http://www.w3.org/2000/svg">
<path d="M10.7679 2.56526H2.65449C2.46634 2.56526 2.31395 2.42139 2.31395 2.24376C2.31395 2.06613 2.46634 1.92225 2.65449 1.92225H10.8275C11.0156 1.92225 11.168 1.77838 11.168 1.60075C11.168 1.06805 10.7106 0.636234 10.1464 0.636234H2.31395C1.56156 0.636234 0.951782 1.21193 0.951782 1.92225V8.35234C0.951782 9.06266 1.56156 9.63836 2.31395 9.63836H10.7679C11.3642 9.63836 11.8491 9.20573 11.8491 8.67384V3.52977C11.8491 2.99789 11.3642 2.56526 10.7679 2.56526ZM9.80584 6.74482C9.42976 6.74482 9.12476 6.45687 9.12476 6.10181C9.12476 5.74675 9.42976 5.4588 9.80584 5.4588C10.1819 5.4588 10.4869 5.74675 10.4869 6.10181C10.4869 6.45687 10.1819 6.74482 9.80584 6.74482Z" fill="white" fill-opacity="0.4"/>
</svg>
